<svg width="92" height="58" viewBox="0 0 92 58" fill="none" xmlns="http://www.w3.org/2000/svg">
<g id="Frame">
<g id="Group">
<g id="Group_2">
<path id="Vector" d="M33.5908 32.7808V57.4018H58.2642V32.7808H33.5908ZM53.8604 53.0046H37.9974V37.3225H53.8604V53.0046Z" fill="black"/>
<path id="Vector_2" d="M26.3963 42.4542H24.4144C24.4144 42.4542 23.6791 31.8294 10.1669 32.5605L3.1908 32.7814V57.4025C3.1908 57.4025 19.7864 59.6011 23.9005 53.739C23.8978 53.739 27.1289 51.8323 26.3963 42.4542ZM7.81603 36.5185H12.9005C14.0104 36.5185 15.1175 36.7067 16.148 37.1186C20.1254 38.7198 20.448 42.3805 20.448 42.3805H7.81603V36.5185ZM21.6589 49.3773C20.9564 50.7167 19.9805 51.4532 19.565 51.7587C17.4465 53.3244 14.907 53.4144 10.3118 53.5181C9.2293 53.5426 8.35182 53.529 7.81603 53.5181V47.2169H22.356C22.2795 47.7488 22.1045 48.5317 21.6589 49.3773Z" fill="black"/>
<path id="Vector_3" d="M67.8127 57.8416L65.6094 54.1782C70.4068 51.745 72.457 49.1318 73.3345 47.2823C74.0452 45.7821 73.9496 44.0254 73.1268 42.5824C70.8961 38.6816 65.6121 36.1502 65.6121 36.1502L67.6678 32.4868C67.6678 32.4868 74.2776 35.7111 77.0686 40.9866V49.6337C77.0659 49.6337 73.8348 54.4701 67.8127 57.8416Z" fill="black"/>
<path id="Vector_4" d="M86.1715 57.8416L88.3747 54.1782C83.5773 51.745 81.5271 49.1318 80.6496 47.2823C79.9389 45.7821 80.0346 44.0254 80.8574 42.5824C83.088 38.6816 88.372 36.1502 88.372 36.1502L86.3163 32.4868C86.3163 32.4868 79.7065 35.7111 76.9155 40.9866V49.6337C76.9183 49.6337 80.1494 54.4701 86.1715 57.8416Z" fill="black"/>
</g>
<g id="Group_3">
<path id="Vector_5" d="M46.0755 0.831055V5.37555L37.8529 8.89167V19.8847L46.0755 23.4008V27.9453L33.5912 22.667V6.1066L46.0755 0.831055Z" fill="black"/>
<path id="Vector_6" d="M46.0758 27.9453V23.4008L54.3012 19.8847V8.89167L46.0758 5.37555V0.831055L58.5601 6.1066V22.667L46.0758 27.9453Z" fill="black"/>
<path id="Vector_7" d="M79.7099 18.125H74.4231V26.0383H79.7099V18.125Z" fill="black"/>
<path id="Vector_8" d="M4.21873 17.8303L0.399902 20.1762C1.10244 21.3764 2.4993 23.3922 4.95407 25.0126C10.0741 28.3923 15.5385 27.2302 16.2629 27.0639C21.5032 25.8609 25.3357 21.8811 26.8365 17.5384C27.6238 15.2607 27.6511 13.234 27.5718 11.9683C26.1531 11.9683 24.7316 11.9683 23.3129 11.9683C23.3758 12.8466 23.496 16.0736 21.2572 19.0032C19.1688 21.7338 15.719 23.3022 12.1516 22.9613C6.98786 22.4648 4.45655 18.2422 4.21873 17.8303Z" fill="black"/>
<path id="Vector_9" d="M66.799 2.79199L62.4143 3.72217C62.674 5.08879 63.3137 7.45924 65.0768 9.80241C68.923 14.9143 74.8467 15.5526 75.746 15.6344C76.29 15.6835 83.1951 16.1964 88.2304 10.9454C90.5348 8.5449 91.4915 5.93168 91.9016 4.49686C90.4336 4.05769 88.963 3.61851 87.495 3.17661C87.2408 4.01677 86.0763 7.53562 82.4543 9.60328C79.3106 11.3954 75.1747 11.6055 71.7796 9.62511C67.9854 7.41014 66.9794 3.54759 66.799 2.79199Z" fill="black"/>
<path id="Vector_10" d="M28.7444 1.56445H22.2822V6.6927H28.7444V1.56445Z" fill="black"/>
</g>
</g>
</g>
</svg>
