<svg width="42" height="20" viewBox="0 0 42 20" fill="none" xmlns="http://www.w3.org/2000/svg">
<g id="Frame" clip-path="url(#clip0_1_552)">
<path id="Vector" d="M16.5047 2.22266H6.17188V19.2996H16.5047V2.22266Z" fill="white"/>
<g id="Group">
<path id="Vector_2" d="M13.4742 19.3902C13.4742 16.9429 13.4742 14.5074 13.4742 12.0155C14.2611 12.0155 15.0406 12.0155 15.8666 12.0155C15.9882 11.0277 16.1033 10.0895 16.2249 9.10001C15.2985 9.10001 14.408 9.10001 13.506 9.10001C13.4824 8.97875 13.4538 8.89958 13.453 8.82042C13.4497 8.24524 13.4399 7.66921 13.4546 7.09403C13.4758 6.24684 13.7966 5.89566 14.6145 5.83503C15.021 5.80471 15.4299 5.81903 15.838 5.81397C15.9841 5.81229 16.1294 5.81397 16.3033 5.81397C16.3033 4.93309 16.3033 4.09937 16.3033 3.26902C16.2494 3.2446 16.2127 3.21344 16.176 3.2126C15.2805 3.19491 14.377 3.09722 13.4905 3.18228C11.8474 3.33976 10.7137 4.59287 10.588 6.29736C10.5333 7.03761 10.5537 7.7829 10.5406 8.52652C10.5382 8.69158 10.5398 8.85748 10.5398 9.08064C9.71784 9.08064 8.93751 9.08064 8.13514 9.08064C8.13514 10.0718 8.13514 11.0049 8.13514 11.9801C8.92771 11.9801 9.69906 11.9801 10.539 11.9801C10.5406 14.4687 10.5398 16.9143 10.5406 19.3969C10.3896 19.4087 10.2721 19.4255 10.1545 19.4255C8.18248 19.4264 6.20962 19.4356 4.23757 19.4222C2.19859 19.4078 0.615891 17.7791 0.609361 15.6729C0.597933 11.7713 0.597117 7.87049 0.610177 3.96884C0.616707 1.86096 2.22553 0.242361 4.2996 0.236466C7.49602 0.228045 10.6932 0.23394 13.8897 0.23394C14.4202 0.23394 14.9508 0.232255 15.4813 0.235624C17.6003 0.250782 19.1618 1.84664 19.1855 4.03958C19.2002 5.35838 19.1887 6.67801 19.1895 7.99681C19.1895 10.4946 19.1846 12.9924 19.192 15.491C19.1944 16.5151 18.921 17.4271 18.2443 18.1926C17.5807 18.9447 16.7514 19.3624 15.7711 19.412C15.0651 19.4474 14.3566 19.423 13.6497 19.423C13.5974 19.4247 13.5468 19.4053 13.4742 19.3902Z" fill="black"/>
<path id="Vector_3" d="M32.1216 19.3656C30.4083 19.3656 28.6942 19.3244 26.9817 19.3766C24.9419 19.4389 22.8654 17.7976 22.84 15.1659C22.8139 12.4584 22.8327 9.75006 22.8327 7.04257C22.8327 6.17264 22.8196 5.30271 22.8384 4.43277C22.8809 2.41921 24.2391 0.731558 26.1116 0.360173C26.403 0.302065 26.705 0.274274 27.0021 0.273432C30.3748 0.265853 33.7475 0.269221 37.1194 0.264169C38.9821 0.2608 40.515 1.26969 41.1133 2.95818C41.2692 3.39862 41.3753 3.88538 41.3786 4.35193C41.4015 7.99925 41.4088 11.6474 41.3908 15.2956C41.3802 17.4599 39.7241 19.2553 37.6288 19.3547C36.2305 19.4212 34.8282 19.3825 33.4276 19.3901C32.9925 19.3926 32.5574 19.3901 32.1224 19.3901C32.1216 19.3816 32.1216 19.3741 32.1216 19.3656ZM25.3622 9.86964C25.3622 10.9223 25.3598 11.975 25.3631 13.0277C25.3655 13.7317 25.5492 14.3894 25.8993 14.989C26.6788 16.323 27.8444 17.0161 29.3406 17.038C31.258 17.0658 33.1778 17.0767 35.0943 17.0102C37.2419 16.9352 38.8597 15.1625 38.8776 12.9485C38.894 10.8853 38.898 8.82202 38.8858 6.75961C38.8719 4.4833 37.1472 2.69964 34.9433 2.6828C33.066 2.66764 31.1886 2.66764 29.3112 2.68533C27.078 2.70638 25.372 4.49425 25.3631 6.79751C25.359 7.82071 25.3622 8.84476 25.3622 9.86964Z" fill="black"/>
<path id="Vector_4" d="M25.3626 9.86968C25.3626 8.8448 25.3593 7.82075 25.3634 6.79586C25.3724 4.4926 27.0791 2.70474 29.3116 2.68368C31.1889 2.666 33.0663 2.66684 34.9436 2.68116C37.1467 2.69884 38.8722 4.48166 38.8861 6.75797C38.8992 8.82121 38.8943 10.8845 38.8779 12.9469C38.8608 15.16 37.243 16.9336 35.0947 17.0085C33.1789 17.0751 31.2583 17.0641 29.3409 17.0363C27.8448 17.0144 26.6784 16.3213 25.8997 14.9874C25.5495 14.3878 25.3658 13.7301 25.3634 13.026C25.3601 11.975 25.3626 10.9224 25.3626 9.86968ZM26.4131 9.83852C26.4139 9.83852 26.4147 9.83852 26.4155 9.83852C26.4155 10.8904 26.4 11.943 26.4188 12.994C26.4482 14.5966 27.6758 15.8986 29.2169 15.9238C31.1065 15.955 32.9961 15.9617 34.8857 15.9339C36.6243 15.9087 37.8348 14.6025 37.838 12.8088C37.8421 10.8314 37.8413 8.85322 37.8372 6.87587C37.8332 5.08295 36.5557 3.76499 34.8245 3.76331C33.0296 3.76162 31.2346 3.79194 29.4413 3.7532C27.8439 3.71952 26.3535 5.06358 26.409 6.89271C26.4376 7.8738 26.4131 8.85659 26.4131 9.83852Z" fill="white"/>
<path id="Vector_5" d="M26.4135 9.83851C26.4135 8.85658 26.438 7.8738 26.4078 6.89354C26.3522 5.06441 27.8419 3.72035 29.4401 3.75404C31.2342 3.79193 33.0291 3.76162 34.8232 3.76414C36.5553 3.76583 37.8327 5.08378 37.836 6.8767C37.8401 8.85405 37.8409 10.8322 37.8368 12.8096C37.8335 14.6034 36.6231 15.9087 34.8845 15.9348C32.9948 15.9626 31.1052 15.9558 29.2156 15.9247C27.6746 15.8994 26.4469 14.5975 26.4175 12.9949C26.3988 11.943 26.4143 10.8912 26.4143 9.83936C26.4151 9.83851 26.4143 9.83851 26.4135 9.83851ZM28.4329 9.83515C28.4345 11.9759 30.0604 13.6484 32.1345 13.6433C34.2004 13.6391 35.8142 11.9371 35.8215 9.75683C35.8289 7.52599 34.3155 6.01519 32.0741 6.01435C30.0376 6.01351 28.4312 7.69947 28.4329 9.83515ZM35.8835 5.02399C35.3848 5.03157 35.0085 5.43243 35.0216 5.94192C35.0346 6.44889 35.4313 6.8287 35.9317 6.8127C36.401 6.79754 36.7814 6.39584 36.7814 5.91329C36.7822 5.42064 36.3749 5.01641 35.8835 5.02399Z" fill="black"/>
<path id="Vector_6" d="M28.4326 9.83545C28.431 7.69977 30.0382 6.01381 32.0739 6.01465C34.3153 6.01549 35.8286 7.52714 35.8213 9.75713C35.8139 11.9374 34.2002 13.6386 32.1343 13.6436C30.0602 13.6487 28.4343 11.9762 28.4326 9.83545ZM34.5365 9.68386C34.5455 9.02278 34.3504 8.39623 33.8182 7.92379C32.6706 6.90395 30.8781 7.18102 30.0692 8.4956C29.5631 9.31753 29.5762 10.4401 30.1296 11.2401C30.7312 12.1092 31.5588 12.4756 32.5808 12.2827C33.7423 12.0638 34.5373 11.0052 34.5365 9.68386Z" fill="white"/>
<path id="Vector_7" d="M35.8828 5.02354C36.3734 5.01596 36.7807 5.42019 36.7807 5.91369C36.7807 6.39539 36.4003 6.79794 35.931 6.81309C35.4306 6.8291 35.0339 6.44929 35.0208 5.94232C35.0078 5.43114 35.3841 5.03028 35.8828 5.02354Z" fill="white"/>
<path id="Vector_8" d="M34.5362 9.68386C34.537 11.0052 33.742 12.0638 32.5813 12.2827C31.5594 12.4747 30.7317 12.1084 30.1301 11.2401C29.5767 10.4401 29.5637 9.31837 30.0697 8.4956C30.8786 7.18101 32.6711 6.90311 33.8187 7.92378C34.3501 8.39622 34.5452 9.02278 34.5362 9.68386Z" fill="black"/>
</g>
</g>
<defs>
<clipPath id="clip0_1_552">
<rect width="40.8" height="19.2" fill="white" transform="translate(0.599609 0.230469)"/>
</clipPath>
</defs>
</svg>
